<?xml version="1.0" encoding="utf-8"?>
<!-- Generator: Adobe Illustrator 17.0.0, SVG Export Plug-In . SVG Version: 6.00 Build 0)  -->
<!DOCTYPE svg PUBLIC "-//W3C//DTD SVG 1.1//EN" "http://www.w3.org/Graphics/SVG/1.1/DTD/svg11.dtd">
<svg version="1.1" id="Layer_1" xmlns="http://www.w3.org/2000/svg" xmlns:xlink="http://www.w3.org/1999/xlink" x="0px" y="0px"
	 width="114.88px" height="40px" viewBox="50.988 17.554 114.88 40" enable-background="new 50.988 17.554 114.88 40"
	 xml:space="preserve">
<g id="Black_Blackground">
</g>
<g id="SemiBold">
	<g>
		<path d="M165.469,51.515c0,3.478-2.555,5.64-6.03,5.64H57.284c-3.477,0-6.296-2.821-6.296-6.299V24.25
			c0-3.477,2.819-6.297,6.296-6.297h102.155c3.475,0,6.03,2.82,6.03,6.297L165.469,51.515L165.469,51.515z"/>
		<path fill="#FFFFFF" d="M159.439,57.554H57.284c-3.691,0-6.695-3.004-6.695-6.698V24.25c0-3.692,3.004-6.697,6.695-6.697h102.155
			c3.606,0,6.429,2.941,6.429,6.697v27.264C165.869,55.127,163.285,57.554,159.439,57.554z M57.284,18.352
			c-3.251,0-5.896,2.646-5.896,5.898v26.605c0,3.253,2.645,5.899,5.896,5.899h102.155c3.367,0,5.63-2.106,5.63-5.241V24.25
			c0-3.307-2.473-5.898-5.63-5.898H57.284z"/>
	</g>
	<g>
		<g>
			<path fill="#FFFFFF" d="M129.224,46.091l-0.86,0.811c-0.198,0.109-0.396,0.236-0.593,0.326c-0.597,0.271-1.204,0.339-1.744,0.339
				c-0.574,0-1.474-0.037-2.392-0.701c-1.276-0.899-1.833-2.443-1.833-3.789c0-2.786,2.268-4.153,4.118-4.153
				c0.647,0,1.311,0.162,1.851,0.503c0.898,0.593,1.13,1.365,1.259,1.779l-4.225,1.707l-1.384,0.108
				c0.448,2.284,1.993,3.613,3.701,3.613c0.853,0,1.486-0.278,2.067-0.566C129.191,46.069,129.307,46.008,129.224,46.091z
				 M126.675,41.547c0.344-0.125,0.522-0.233,0.522-0.483c0-0.718-0.812-1.547-1.781-1.547c-0.718,0-2.066,0.559-2.066,2.5
				c0,0.303,0.036,0.626,0.054,0.949L126.675,41.547z"/>
			<path fill="#FFFFFF" d="M120.39,45.952c0,0.699,0.125,0.807,0.715,0.862c0.308,0.036,0.615,0.053,0.919,0.088l-0.665,0.396
				h-3.167c0.415-0.539,0.487-0.592,0.487-0.952v-0.401l-0.007-10.685h-1.399l1.346-0.649h2.57
				c-0.557,0.322-0.723,0.519-0.795,1.148L120.39,45.952z"/>
			<path fill="#FFFFFF" d="M115.479,39.807c0.412,0.339,1.274,1.059,1.274,2.425c0,1.331-0.75,1.958-1.507,2.552
				c-0.232,0.234-0.503,0.487-0.503,0.879c0,0.397,0.272,0.613,0.467,0.774l0.649,0.501c0.789,0.666,1.509,1.277,1.509,2.518
				c0,1.691-1.636,3.395-4.728,3.395c-2.604,0-3.863-1.24-3.863-2.57c0-0.648,0.322-1.564,1.385-2.192
				c1.114-0.681,2.624-0.772,3.432-0.825c-0.252-0.326-0.541-0.667-0.541-1.224c0-0.305,0.092-0.486,0.18-0.7
				c-0.197,0.019-0.395,0.038-0.575,0.038c-1.906,0-2.984-1.422-2.984-2.824c0-0.827,0.377-1.743,1.151-2.408
				c1.025-0.844,2.246-0.989,3.217-0.989h3.704l-1.151,0.65L115.479,39.807L115.479,39.807z M114.205,47.785
				c-0.147-0.019-0.235-0.019-0.413-0.019c-0.163,0-1.134,0.035-1.886,0.288c-0.398,0.145-1.548,0.575-1.548,1.852
				c0,1.274,1.241,2.192,3.162,2.192c1.725,0,2.642-0.827,2.642-1.941C116.161,49.241,115.569,48.757,114.205,47.785z
				 M114.722,44.37c0.415-0.414,0.452-0.987,0.452-1.313c0-1.293-0.771-3.306-2.265-3.306c-0.466,0-0.971,0.234-1.257,0.595
				c-0.304,0.374-0.395,0.86-0.395,1.327c0,1.204,0.701,3.2,2.246,3.2C113.953,44.873,114.438,44.655,114.722,44.37z"/>
			<path fill="#FFFFFF" d="M104.336,47.53c-2.857,0-4.385-2.225-4.385-4.239c0-2.353,1.922-4.367,4.655-4.367
				c2.642,0,4.297,2.069,4.297,4.24C108.902,45.286,107.267,47.53,104.336,47.53z M106.584,46.077
				c0.435-0.575,0.54-1.293,0.54-1.993c0-1.583-0.754-4.601-2.983-4.601c-0.593,0-1.19,0.232-1.62,0.61
				c-0.702,0.629-0.827,1.419-0.827,2.194c0,1.776,0.877,4.704,3.055,4.704C105.452,46.99,106.169,46.651,106.584,46.077z"/>
			<path fill="#FFFFFF" d="M94.772,47.53c-2.857,0-4.383-2.225-4.383-4.239c0-2.353,1.922-4.367,4.654-4.367
				c2.641,0,4.294,2.069,4.294,4.24C99.336,45.286,97.703,47.53,94.772,47.53z M97.02,46.077c0.431-0.575,0.539-1.293,0.539-1.993
				c0-1.583-0.756-4.601-2.983-4.601c-0.595,0-1.186,0.232-1.617,0.61c-0.703,0.629-0.828,1.419-0.828,2.194
				c0,1.776,0.881,4.704,3.055,4.704C95.889,46.99,96.604,46.651,97.02,46.077z"/>
			<path fill="#FFFFFF" d="M89.246,46.907l-2.409,0.551c-0.976,0.154-1.853,0.29-2.781,0.29c-4.648,0-6.418-3.421-6.418-6.098
				c0-3.27,2.509-6.301,6.805-6.301c0.909,0,1.784,0.134,2.581,0.35c1.263,0.355,1.853,0.792,2.222,1.049l-1.4,1.329l-0.59,0.132
				l0.421-0.671c-0.57-0.557-1.617-1.584-3.606-1.584c-2.658,0-4.664,2.021-4.664,4.971c0,3.168,2.29,6.149,5.962,6.149
				c1.079,0,1.634-0.217,2.139-0.419v-2.716l-2.544,0.137l1.348-0.724h3.57l-0.436,0.42c-0.118,0.1-0.134,0.134-0.167,0.268
				c-0.018,0.153-0.034,0.641-0.034,0.813L89.246,46.907L89.246,46.907z"/>
		</g>
		<g>
			<path fill="#FFFFFF" d="M134.405,46.168v4.578h-0.909V39.098h0.909v1.326c0.592-0.857,1.674-1.537,2.931-1.537
				c2.254,0,3.773,1.71,3.773,4.417c0,2.689-1.519,4.435-3.773,4.435C136.149,47.739,135.086,47.127,134.405,46.168z
				 M140.132,43.304c0-2.04-1.064-3.596-2.949-3.596c-1.171,0-2.291,0.921-2.778,1.723v3.729c0.487,0.804,1.607,1.758,2.778,1.758
				C139.068,46.917,140.132,45.347,140.132,43.304z"/>
			<path fill="#FFFFFF" d="M142.35,47.529V35.881h0.909v11.648C143.259,47.529,142.35,47.529,142.35,47.529z"/>
			<path fill="#FFFFFF" d="M153.46,49.993c0.194,0.086,0.526,0.14,0.737,0.14c0.556,0,0.943-0.227,1.291-1.031l0.663-1.502
				l-3.582-8.502h1.014l3.072,7.368l3.042-7.368h1.028l-4.367,10.286c-0.453,1.06-1.166,1.569-2.146,1.569
				c-0.294,0-0.681-0.053-0.909-0.122L153.46,49.993z"/>
			<path fill="#FFFFFF" d="M150.804,47.504c-0.061-0.292-0.107-0.55-0.14-0.765c-0.028-0.215-0.044-0.434-0.044-0.657
				c-0.312,0.457-0.754,0.838-1.318,1.139c-0.565,0.301-1.1,0.45-1.836,0.45c-0.886,0-1.573-0.218-2.064-0.66
				c-0.489-0.442-0.735-1.04-0.735-1.796c0-0.756,0.356-1.369,1.067-1.838c0.71-0.471,1.629-0.705,2.765-0.705h2.12v-1.048
				c0-0.603-0.206-1.077-0.616-1.422c-0.412-0.344-0.991-0.519-1.741-0.519c-0.685,0-1.241,0.159-1.665,0.469
				c-0.42,0.316-0.631,0.708-0.631,1.181h-0.93l-0.019-0.045c-0.034-0.636,0.258-1.196,0.877-1.678
				c0.616-0.482,1.425-0.724,2.419-0.724c0.991,0,1.793,0.239,2.398,0.715c0.604,0.471,0.907,1.152,0.907,2.043v4.16
				c0,0.299,0.014,0.587,0.052,0.869c0.038,0.282,0.1,0.563,0.181,0.835h-1.047V47.504z M147.578,46.842
				c0.772,0,1.327-0.173,1.895-0.514c0.563-0.34,0.946-0.782,1.148-1.318v-1.619h-2.13c-0.814,0-1.487,0.18-2.017,0.544
				c-0.531,0.362-0.8,0.8-0.8,1.31c0,0.48,0.17,0.865,0.51,1.157C146.522,46.696,146.986,46.842,147.578,46.842z"/>
		</g>
	</g>
	<g>
		<polygon fill="none" points="65.767,42.829 68.683,39.913 68.682,39.913 65.767,42.829 56.458,33.522 56.458,33.522 
			65.767,42.831 56.443,52.154 56.443,52.154 65.767,42.831 68.696,45.76 68.697,45.76 		"/>
		
			<linearGradient id="SVGID_1_" gradientUnits="userSpaceOnUse" x1="745.0535" y1="767.41" x2="732.7635" y2="775.1016" gradientTransform="matrix(0.7071 0.7071 0.7071 -0.7071 -1005.6585 57.8889)">
			<stop  offset="0" style="stop-color:#D6FFA1"/>
			<stop  offset="0.3264" style="stop-color:#93E2A7"/>
			<stop  offset="1" style="stop-color:#00A3B5"/>
		</linearGradient>
		<path fill="url(#SVGID_1_)" d="M68.682,39.913l-11.364-6.248c-0.322-0.176-0.619-0.217-0.86-0.143l9.308,9.307L68.682,39.913z"/>
		
			<linearGradient id="SVGID_2_" gradientUnits="userSpaceOnUse" x1="737.9079" y1="773.9805" x2="753.8423" y2="769.815" gradientTransform="matrix(0.7071 0.7071 0.7071 -0.7071 -1005.6585 57.8889)">
			<stop  offset="0" style="stop-color:#FF177B"/>
			<stop  offset="0.6721" style="stop-color:#FFA976"/>
			<stop  offset="1" style="stop-color:#FFEC73"/>
		</linearGradient>
		<path fill="url(#SVGID_2_)" d="M68.697,45.76l3.879-2.133c0.787-0.434,0.787-1.141,0-1.573l-3.893-2.141l-2.916,2.916
			L68.697,45.76z"/>
		
			<linearGradient id="SVGID_3_" gradientUnits="userSpaceOnUse" x1="746.8036" y1="761.5763" x2="729.5248" y2="771.7421" gradientTransform="matrix(0.7071 0.7071 0.7071 -0.7071 -1005.6585 57.8889)">
			<stop  offset="0" style="stop-color:#63FFD4"/>
			<stop  offset="0.4854" style="stop-color:#32A0BA"/>
			<stop  offset="0.8349" style="stop-color:#1262A9"/>
			<stop  offset="1" style="stop-color:#064AA2"/>
		</linearGradient>
		<path fill="url(#SVGID_3_)" d="M56.458,33.522c-0.346,0.108-0.569,0.458-0.569,0.987l0.002,16.661
			c0,0.523,0.217,0.868,0.553,0.983l9.323-9.323L56.458,33.522z"/>
		
			<linearGradient id="SVGID_4_" gradientUnits="userSpaceOnUse" x1="753.0767" y1="769.6474" x2="742.4376" y2="755.631" gradientTransform="matrix(0.7071 0.7071 0.7071 -0.7071 -1005.6585 57.8889)">
			<stop  offset="0" style="stop-color:#FF4521"/>
			<stop  offset="0.3411" style="stop-color:#D43E65"/>
			<stop  offset="0.7935" style="stop-color:#9F36B9"/>
			<stop  offset="1" style="stop-color:#8A33DB"/>
		</linearGradient>
		<path fill="url(#SVGID_4_)" d="M56.443,52.154c0.242,0.082,0.545,0.044,0.875-0.137l11.377-6.257l-2.929-2.929L56.443,52.154z"/>
	</g>
	<g>
		<g>
			<path fill="#FFFFFF" d="M82.697,29.165l-0.418-1.099h-2.608l-0.418,1.099h-1.134l2.233-5.686h1.245l2.234,5.686H82.697z
				 M80.975,24.476l-1.023,2.711h2.046L80.975,24.476z"/>
			<path fill="#FFFFFF" d="M88.618,29.165l-2.966-4.066v4.066h-0.997v-5.686h1.023l2.907,3.938v-3.938h0.998v5.686H88.618z"/>
			<path fill="#FFFFFF" d="M91.003,29.165v-5.686h2.114c1.781,0,2.975,1.176,2.975,2.839c0,1.679-1.193,2.847-2.966,2.847
				C93.126,29.165,91.003,29.165,91.003,29.165z M95.069,26.318c0-1.091-0.682-1.961-1.943-1.961H92v3.93h1.117
				C94.353,28.287,95.069,27.4,95.069,26.318z"/>
			<path fill="#FFFFFF" d="M100.514,29.165l-1.253-2.122h-0.998v2.122h-0.997v-5.686h2.497c1.125,0,1.867,0.725,1.867,1.782
				c0,1.006-0.665,1.56-1.355,1.671l1.398,2.233C101.673,29.165,100.514,29.165,100.514,29.165z M100.608,25.252
				c0-0.545-0.41-0.895-0.972-0.895h-1.372v1.808h1.372C100.198,26.165,100.608,25.806,100.608,25.252z"/>
			<path fill="#FFFFFF" d="M102.591,26.327c0-1.697,1.202-2.941,2.907-2.941c1.696,0,2.907,1.245,2.907,2.941
				c0,1.696-1.211,2.941-2.907,2.941C103.793,29.267,102.591,28.023,102.591,26.327z M107.383,26.327
				c0-1.176-0.742-2.054-1.884-2.054c-1.151,0-1.884,0.878-1.884,2.054c0,1.167,0.733,2.054,1.884,2.054
				C106.641,28.381,107.383,27.494,107.383,26.327z"/>
			<path fill="#FFFFFF" d="M109.571,29.165v-5.686h0.997v5.686C110.568,29.165,109.571,29.165,109.571,29.165z"/>
			<path fill="#FFFFFF" d="M111.991,29.165v-5.686h2.114c1.781,0,2.975,1.176,2.975,2.839c0,1.679-1.193,2.847-2.966,2.847
				C114.114,29.165,111.991,29.165,111.991,29.165z M116.057,26.318c0-1.091-0.682-1.961-1.943-1.961h-1.125v3.93h1.117
				C115.341,28.287,116.057,27.4,116.057,26.318z"/>
			<path fill="#FFFFFF" d="M124.655,29.165l-0.418-1.099h-2.608l-0.418,1.099h-1.134l2.233-5.686h1.245l2.233,5.686H124.655z
				 M122.933,24.476l-1.023,2.711h2.046L122.933,24.476z"/>
			<path fill="#FFFFFF" d="M126.613,29.165v-5.686h2.506c1.193,0,1.85,0.81,1.85,1.782c0,0.963-0.665,1.773-1.85,1.773h-1.509v2.131
				C127.61,29.165,126.613,29.165,126.613,29.165z M129.946,25.261c0-0.545-0.4-0.903-0.963-0.903h-1.372v1.799h1.372
				C129.545,26.156,129.946,25.798,129.946,25.261z"/>
			<path fill="#FFFFFF" d="M132.016,29.165v-5.686h2.506c1.193,0,1.85,0.81,1.85,1.782c0,0.963-0.665,1.773-1.85,1.773h-1.509v2.131
				C133.013,29.165,132.016,29.165,132.016,29.165z M135.348,25.261c0-0.545-0.4-0.903-0.963-0.903h-1.372v1.799h1.372
				C134.947,26.156,135.348,25.798,135.348,25.261z"/>
			<path fill="#FFFFFF" d="M139.582,26.327c0-1.697,1.202-2.941,2.907-2.941c1.696,0,2.907,1.245,2.907,2.941
				c0,1.696-1.211,2.941-2.907,2.941C140.783,29.267,139.582,28.023,139.582,26.327z M144.373,26.327
				c0-1.176-0.742-2.054-1.884-2.054c-1.151,0-1.884,0.878-1.884,2.054c0,1.167,0.733,2.054,1.884,2.054
				C143.631,28.381,144.373,27.494,144.373,26.327z"/>
			<path fill="#FFFFFF" d="M150.525,29.165l-2.966-4.066v4.066h-0.997v-5.686h1.023l2.907,3.938v-3.938h0.997v5.686H150.525z"/>
		</g>
	</g>
</g>
</svg>
