<?xml version="1.0" encoding="utf-8"?>
<!-- Generator: Adobe Illustrator 15.1.0, SVG Export Plug-In . SVG Version: 6.00 Build 0)  -->
<!DOCTYPE svg PUBLIC "-//W3C//DTD SVG 1.1//EN" "http://www.w3.org/Graphics/SVG/1.1/DTD/svg11.dtd">
<svg version="1.1" id="Lag_1" xmlns="http://www.w3.org/2000/svg" xmlns:xlink="http://www.w3.org/1999/xlink" x="0px" y="0px"
	 width="793.709px" height="458.428px" viewBox="0 0 793.709 458.428" enable-background="new 0 0 793.709 458.428"
	 xml:space="preserve">
<g>
	<g>
		<defs>
			<rect id="SVGID_1_" x="410" y="119.567" width="377.608" height="232.151"/>
		</defs>
		<clipPath id="SVGID_2_">
			<use xlink:href="#SVGID_1_"  overflow="visible"/>
		</clipPath>
		<path clip-path="url(#SVGID_2_)" fill="none" stroke="#7C7D7C" stroke-linecap="square" stroke-miterlimit="10" d="
			M437.078,288.935h340.699 M437.078,265.121h340.699 M437.078,241.578h340.699 M437.078,218.036h340.699 M437.078,194.492h340.699
			 M437.078,170.678h340.699 M437.078,147.135h340.699 M437.078,123.592h340.699 M434.372,312.479h2.706 M434.372,288.935h2.706
			 M434.372,265.121h2.706 M434.372,241.578h2.706 M434.372,218.036h2.706 M434.372,194.492h2.706 M434.372,170.678h2.706
			 M434.372,147.135h2.706 M434.372,123.592h2.706 M437.078,312.479h340.699 M437.078,315.186v-2.707 M522.591,315.186v-2.707
			 M608.376,315.186v-2.707 M691.183,315.186v-2.707 M776.967,315.186v-2.707"/>
	</g>
	<path fill="none" stroke="#555658" stroke-width="1.92" stroke-linecap="round" stroke-miterlimit="10" d="M437.806,166.391
		l0.625-1.666 M438.431,164.725l0.812,1.895 M439.242,166.62l2.706,3.789 M441.948,170.408l1.083-1.895 M443.03,168.514l0.812,2.436
		 M443.843,170.949l1.082-1.353 M444.925,169.596l0.812,5.413 M445.737,175.009l2.706-2.706 M448.443,172.303l1.083,0.27
		 M449.525,172.573l0.811-0.541 M450.336,172.032l1.083,0.812 M451.42,172.844l0.811-1.895 M452.231,170.949l2.977,1.083
		 M455.208,172.032l0.812-0.812 M456.02,171.22l0.812-8.119 M456.832,163.102l1.082-2.165 M457.914,160.937l0.812-3.248
		 M458.727,157.689l2.977-1.624 M461.703,156.065l0.812,0.271 M462.515,156.336l0.812,0.541 M463.326,156.877h1.082
		 M464.408,156.877l0.812,3.247 M465.221,160.125l2.977,8.66 M468.198,168.785l0.811-1.624 M469.009,167.161l1.083-1.354
		 M470.091,165.808l0.812,4.601 M470.904,170.408l0.812,4.059 M471.716,174.467l2.976,4.871 M474.692,179.338l0.812-1.083
		 M475.504,178.256l1.083-18.943 M476.587,159.313l0.811-9.201 M477.398,150.112l1.083,0.541 M478.481,150.653l2.707,2.977
		 M481.188,153.63l0.812-7.307 M481.999,146.324h1.082 M483.081,146.324l0.812,2.977 M483.893,149.3l1.083,2.707 M484.975,152.007
		l2.706-0.542 M487.681,151.465l0.812,1.895 M488.493,153.359l1.083,4.871 M489.576,158.23h0.812 M490.387,158.23l1.083-17.048
		 M491.47,141.182l2.707,2.165 M494.176,143.347l0.812-1.082 M494.988,142.265l1.083,2.435 M496.07,144.7l0.812,10.283
		 M496.883,154.983l1.082,19.484 M497.965,174.467l2.706,4.601 M500.671,179.068l1.082,2.706 M501.753,181.774l0.812,1.624
		 M502.565,183.397l0.812,0.541 M503.377,183.938l1.083,2.165 M504.46,186.104l2.706,1.895 M507.166,187.998l1.083,4.059
		 M508.249,192.057l0.811,4.601 M509.06,196.657l0.812-1.624 M509.872,195.034l1.082-0.812 M510.954,194.222l2.706,3.518
		 M513.66,197.74l1.083-1.353 M514.743,196.387l0.812-1.082 M515.555,195.305l1.082-2.165 M516.637,193.14l0.812-7.036
		 M517.448,186.104l2.707-4.059 M520.155,182.044l1.082-2.436 M521.237,179.608l0.812,3.518 M522.049,183.126l1.082-0.27
		 M523.131,182.856l0.813,2.435 M523.944,185.292l2.705,1.353 M526.649,186.645l1.082,0.812 M527.731,187.457l0.812,3.788
		 M528.543,191.245l1.083,0.542 M529.626,191.787l0.812-3.248 M530.438,188.539l2.705-3.789 M533.144,184.75l1.083-1.894
		 M534.227,182.856l0.812,4.601 M535.039,187.457l1.082,6.224 M536.121,193.681l0.812,0.542 M536.933,194.222l2.977-1.083
		 M539.909,193.139l0.812,3.248 M540.722,196.387l0.812,7.577 M541.533,203.964l1.082,2.436 M542.615,206.399l0.812,9.742
		 M543.427,216.142l2.978,0.271 M546.404,216.412h0.812 M547.216,216.412l5.684,1.895 M552.899,218.307l0.812-2.436
		 M553.711,215.871l2.706,6.224 M556.417,222.095l2.977,1.624 M559.394,223.718h0.812 M560.205,223.718l1.082,6.224
		 M561.287,229.942l0.812,3.248 M562.1,233.19l1.083,3.247 M563.183,236.438l2.705-0.271 M565.888,236.167l0.812,2.436
		 M566.7,238.603l1.083-0.812 M567.783,237.791l0.812,1.624 M568.595,239.415l1.082-1.354 M569.677,238.06l2.707,5.143
		 M572.384,243.203l0.812,1.623 M573.195,244.825l1.082,2.166 M574.277,246.991l0.812-0.812 M575.089,246.18l1.082-1.083
		 M576.171,245.097l2.707-7.577 M578.878,237.52l0.812-3.248 M579.689,234.272l1.082-1.082 M580.771,233.19l0.812,1.894
		 M581.583,235.084l1.083,0.542 M582.666,235.625h2.706 M585.372,235.625l1.083,2.977 M586.455,238.603l0.812-1.894
		 M587.267,236.708l0.812,4.6 M588.079,241.308l1.082-0.541 M589.161,240.767l2.706-0.541 M591.867,240.226l1.082-1.624
		 M592.949,238.603l0.812,2.976 M593.762,241.578l1.082,2.437 M594.844,244.015l0.812-0.541 M595.655,243.474l2.707,2.434
		 M598.362,245.908l1.082,2.978 M599.444,248.886l0.812-0.542 M600.256,248.343l1.083-4.058 M601.339,244.285l0.812,2.436
		 M602.15,246.721l2.706-0.271 M604.856,246.45l1.084,2.165 M605.94,248.615l0.811,1.894 M606.751,250.508l1.083-0.27
		 M607.834,250.239l0.81,0.542 M608.644,250.78l2.707,2.165 M611.351,252.945l1.084,4.06 M612.435,257.004l0.81,3.788
		 M613.244,260.792l1.083,1.624 M614.327,262.417l0.814-0.271 M615.142,262.146l2.703-2.707 M617.845,259.438l1.083,0.272
		 M618.928,259.71l0.813-3.52 M619.741,256.191l1.082,2.165 M620.823,258.356l0.812-0.269 M621.636,258.087l2.974,0.269
		 M624.609,258.356l0.814,0.813 M625.424,259.169h0.812 M626.236,259.169l1.081,0.542 M627.317,259.71l0.812-0.542 M628.13,259.169
		l2.978-0.813 M631.107,258.356l0.811,0.542 M631.918,258.898l1.083,0.271 M633.001,259.169l0.811,3.788 M633.812,262.957
		l0.812,7.848 M634.623,270.804h2.979 M637.602,270.804l0.811,1.354 M638.412,272.159l1.084,1.353 M639.496,273.511l0.809-4.601
		 M640.305,268.911l0.814-5.141 M641.119,263.77l2.978-1.896 M644.097,261.874l0.809,1.896 M644.905,263.77l1.084,0.541
		 M645.989,264.311l5.414,2.436 M651.403,266.746l1.081,3.518 M652.484,270.264l0.812-1.625 M653.297,268.639l1.082-1.893
		 M654.379,266.746l2.705,1.893 M657.084,268.639l0.813,2.165 M657.897,270.804l1.082-0.54 M658.979,270.264l0.812,1.082
		 M659.792,271.346l1.081,1.623 M660.873,272.969l2.706,2.978 M663.579,275.947l0.813,1.354 M664.393,277.3l1.081,1.083
		 M665.474,278.383l0.812-0.271 M666.285,278.112h1.081 M667.366,278.112h2.708 M670.074,278.112l1.083,0.271 M671.157,278.383
		l0.81,1.624 M671.967,280.006l0.813,0.812 M672.78,280.818l3.788,4.33 M676.568,285.148l1.084-0.813 M677.652,284.335l0.812,2.437
		 M678.465,286.771l1.081,1.353 M679.546,288.124l0.812,0.811 M680.358,288.935l2.705,1.625 M683.063,290.56l1.082-3.248
		 M684.146,287.312l0.813-2.165 M684.959,285.148l4.601-2.707 M689.56,282.441l1.081-1.624 M690.641,280.818l0.812-1.083
		 M691.453,279.734l1.081,0.272 M692.534,280.006l0.812,1.624 M693.347,281.63l3.788,0.812 M697.135,282.441l0.813,0.541
		 M697.948,282.982l1.08-4.871 M699.028,278.112l3.791-7.577 M702.819,270.535l0.811,0.27 M703.63,270.804l0.812,0.272
		 M704.441,271.076h1.084 M705.525,271.076l0.811,1.893 M706.336,272.969l2.978,2.166 M709.313,275.135h0.812 M710.125,275.135
		l0.812,1.895 M710.937,277.029l1.084,1.895 M712.021,278.924l0.811,0.541 M712.831,279.465l2.976,1.894"/>
	<path fill="none" stroke="#555658" stroke-width="1.92" stroke-linecap="round" stroke-miterlimit="10" d="M715.807,281.359
		l0.814-0.541 M716.621,280.818l1.081,1.895 M717.702,282.712l0.812,0.812 M718.515,283.524l0.81,1.083 M719.324,284.606h2.979
		 M722.303,284.606h0.812 M723.115,284.606l1.081,2.436 M724.196,287.042l0.812,5.413 M725.009,292.455l1.08,1.082 M726.089,293.537
		l2.708,2.706 M728.797,296.243l0.812,2.705 M729.609,298.948l1.081,0.272 M730.69,299.22l0.812-0.812 M731.503,298.408l1.084-2.165
		 M732.587,296.243l2.704-1.624 M735.291,294.619l0.812-2.977 M736.103,291.642h1.082 M737.185,291.642l0.813,1.895
		 M737.998,293.537l1.083-0.541 M739.081,292.996l2.703-1.624 M741.784,291.372l0.814,1.624 M742.599,292.996l1.083,0.269
		 M743.682,293.265l0.811,0.272 M744.492,293.537l1.084,0.812 M745.576,294.348l2.706-1.894 M748.282,292.455l1.081,1.353
		 M749.363,293.807l0.813,0.271 M750.177,294.078l0.81-0.542 M750.986,293.537l1.084,3.789 M752.07,297.325l2.706-1.895
		 M754.776,295.431l1.082,1.083 M755.858,296.513l0.812-2.165 M756.671,294.348l0.81-1.353 M757.48,292.996l1.084-2.978
		 M758.564,290.018l2.707,0.271 M761.271,290.289l1.081,2.166 M762.353,292.455l0.812,1.082 M763.164,293.537l1.081,1.083
		 M764.245,294.619l0.814,1.894 M765.06,296.513l2.705-0.812 M767.765,295.701l1.081-0.541 M768.846,295.16l0.813,1.353
		 M769.659,296.513l1.084,0.27 M770.743,296.783l0.811-2.435 M771.554,294.348l2.706,1.083 M774.26,295.431l1.084,1.083
		 M775.344,296.513l0.811,0.812"/>
	<path fill="none" stroke="#E2B412" stroke-width="1.92" stroke-linecap="round" stroke-miterlimit="10" d="M437.806,206.51
		l0.625-2.546 M438.431,203.964l0.812,4.33 M439.242,208.294l2.706,3.789 M441.948,212.083l1.083-2.165 M443.03,209.917l0.812,2.435
		 M443.843,212.353l1.082-0.541 M444.925,211.812l0.812,5.413 M445.737,217.224l2.706-2.706 M448.443,214.518l1.083,0.541
		 M449.525,215.059l0.811,0.271 M450.336,215.33l1.083,0.812 M451.42,216.142l0.811-1.895 M452.231,214.247l2.977,1.624
		 M455.208,215.871l0.812,0.271 M456.02,216.142l0.812-7.577 M456.832,208.564l1.082-2.165 M457.914,206.399l0.812-3.247
		 M458.727,203.152l2.977-2.165 M461.703,200.987l0.812,1.083 M462.515,202.07l0.812,2.706 M463.326,204.776l1.082-1.624
		 M464.408,203.152l0.812,5.142 M465.221,208.294l2.977,6.765 M468.198,215.059l0.811-1.624 M469.009,213.436l1.083,3.247
		 M470.091,216.683l0.812,5.954 M470.904,222.636l0.812,1.624 M471.716,224.26l2.976,2.707 M474.692,226.966l0.812-1.354
		 M475.504,225.613l1.083-18.401 M476.587,207.211l0.811-6.765 M477.398,200.446l1.083-1.895 M478.481,198.552l2.707,2.706
		 M481.188,201.258l0.812-4.871 M481.999,196.387l1.082-0.812 M483.081,195.575l0.812,2.977 M483.893,198.552l1.083,2.706
		 M484.975,201.258l2.706-0.542 M487.681,200.716l0.812,1.624 M488.493,202.34h1.083 M489.576,202.34l0.812,0.271 M490.387,202.611
		l1.083-17.048 M491.47,185.562l2.707-0.542 M494.176,185.021l0.812,0.271 M494.988,185.292l1.083,2.166 M496.07,187.457l0.812,4.33
		 M496.883,191.787l1.082,12.448 M497.965,204.234l2.706,1.895 M500.671,206.129l1.082,0.542 M501.753,206.67l0.812,2.976
		 M502.565,209.646l0.812,2.977 M503.377,212.624l1.083,4.33 M504.46,216.953l2.706,1.895 M507.166,218.848l1.083,4.059
		 M508.249,222.907l0.811,5.412 M509.06,228.319l0.812-1.624 M509.872,226.695l1.082,4.33 M510.954,231.025l2.706,3.248
		 M513.66,234.272l1.083,0.271 M514.743,234.543l0.812-0.271 M515.555,234.272h1.082 M516.637,234.272l0.812-7.036 M517.448,227.236
		l2.707-3.788 M520.155,223.448l1.082-8.119 M521.237,215.33l0.812,3.789 M522.049,219.118l1.082-0.271 M523.131,218.848
		l0.813,2.436 M523.944,221.283l2.705,1.083 M526.649,222.366l1.082,1.083 M527.731,223.448l0.812,3.788 M528.543,227.236
		l1.083,0.542 M529.626,227.778l0.812-3.248 M530.438,224.53l2.705-5.683 M533.144,218.848l1.083-5.412 M534.227,213.436l0.812,4.33
		 M535.039,217.765l1.082,1.895 M536.121,219.66l0.812,0.541 M536.933,220.201l2.977-10.554 M539.909,209.646l0.812,3.248
		 M540.722,212.895l0.812,10.012 M541.533,222.907l1.082,1.894 M542.615,224.801l0.812,17.049 M543.427,241.85l2.978,0.811
		 M546.404,242.661h0.812 M547.216,242.661l5.684,8.93 M552.899,251.591l0.812-2.165 M553.711,249.426l2.706,9.202 M556.417,258.628
		h2.977 M559.394,258.628l0.812-0.812 M560.205,257.816l1.082,6.223 M561.287,264.039l0.812,2.978 M562.1,267.017l1.083,3.518
		 M563.183,270.535l2.705-0.271 M565.888,270.264l0.812,2.436 M566.7,272.7l1.083-1.083 M567.783,271.617l0.812,1.894
		 M568.595,273.511l1.082-1.353 M569.677,272.159l2.707,1.624 M572.384,273.782l0.812,2.165 M573.195,275.947l1.082,1.895
		 M574.277,277.841l0.812,2.165 M575.089,280.006l1.082,0.812 M576.171,280.818l2.707-7.849 M578.878,272.969l0.812-1.352
		 M579.689,271.617l1.082-5.683 M580.771,265.935l0.812,1.894 M581.583,267.828l1.083,0.542 M582.666,268.37h2.706 M585.372,268.37
		l1.083,2.977 M586.455,271.346l0.812-1.894 M587.267,269.452l0.812,4.33 M588.079,273.782l1.082,1.623 M589.161,275.405
		l2.706-0.541 M591.867,274.864l1.082-1.896 M592.949,272.969l0.812,3.249 M593.762,276.217l1.082,2.166 M594.844,278.383
		l0.812-0.271 M595.655,278.112l2.707,2.436 M598.362,280.547l1.082,2.977 M599.444,283.524l0.812-0.542 M600.256,282.982
		l1.083-4.331 M601.339,278.652l0.812,2.707 M602.15,281.359h2.706 M604.856,281.359l1.084,2.165 M605.94,283.524l0.811,1.624
		 M606.751,285.148l1.083-0.271 M607.834,284.877l0.81,0.54 M608.644,285.417l2.707,2.166 M611.351,287.583l1.084,1.895
		 M612.435,289.478l0.81,0.812 M613.244,290.289l1.083,1.624 M614.327,291.913l0.814-13.261 M615.142,278.652l2.703-2.705
		 M617.845,275.947h1.083 M618.928,275.947l0.813-3.518 M619.741,272.429l1.082,2.436 M620.823,274.864l0.812-0.271
		 M621.636,274.594l2.974,0.271 M624.609,274.864l0.814,0.812 M625.424,275.676h0.812 M626.236,275.676l1.081,0.542
		 M627.317,276.217l0.812,2.707 M628.13,278.924l2.978-1.895 M631.107,277.029l0.811-2.436 M631.918,274.594l1.083,0.271
		 M633.001,274.864l0.811-1.353 M633.812,273.511l0.812,2.976 M634.623,276.487l2.979-0.811 M637.602,275.676l0.811,1.083
		 M638.412,276.758l1.084,1.625 M639.496,278.383l0.809-4.601 M640.305,273.782l0.814-5.413 M641.119,268.37l2.978,7.577
		 M644.097,275.947l0.809-7.308 M644.905,268.639l1.084,0.542 M645.989,269.182l5.414,1.083 M651.403,270.264l1.081,1.082
		 M652.484,271.346l0.812,0.812 M653.297,272.159l1.082-4.06 M654.379,268.099l2.705-0.541 M657.084,267.558l0.813,2.164
		 M657.897,269.722l1.082-1.352 M658.979,268.37l0.812,1.083 M659.792,269.452l1.081,6.224 M660.873,275.676l2.706,3.248
		 M663.579,278.924l0.813,1.083 M664.393,280.006l1.081,1.353 M665.474,281.359l0.812-0.541 M666.285,280.818l1.081,0.271
		 M667.366,281.088l2.708,4.06 M670.074,285.148l1.083,0.269 M671.157,285.417l0.81,0.813 M671.967,286.23l0.813,0.541
		 M672.78,286.771l3.788,1.624 M676.568,288.395l1.084-0.812 M677.652,287.583l0.812,2.706 M678.465,290.289l1.081,1.624
		 M679.546,291.913l0.812,0.812 M680.358,292.725l2.705,1.624 M683.063,294.348l1.082-3.248 M684.146,291.1l0.813-2.165
		 M684.959,288.935l4.601-2.436 M689.56,286.5l1.081,0.272 M690.641,286.771l0.812-1.354 M691.453,285.417l1.081,0.272
		 M692.534,285.689l0.812,3.246 M693.347,288.935l3.788,0.542 M697.135,289.478l0.813,0.54 M697.948,290.018l1.08-4.329
		 M699.028,285.689l3.791-8.66 M702.819,277.029l0.811,0.271 M703.63,277.3l0.812,3.788 M704.441,281.088l1.084-0.812
		 M705.525,280.276l0.811,1.624 M706.336,281.9l2.978,2.166 M709.313,284.065l0.812-2.436 M710.125,281.63l0.812,2.165
		 M710.937,283.794l1.084,0.812 M712.021,284.606l0.811,0.542 M712.831,285.148l2.976,1.894"/>
	<path fill="none" stroke="#E2B412" stroke-width="1.92" stroke-linecap="round" stroke-miterlimit="10" d="M715.807,287.042
		l0.814-0.271 M716.621,286.771l1.081,2.706 M717.702,289.478l0.812,0.54 M718.515,290.018l0.81-0.54 M719.324,289.478l2.979-2.706
		 M722.303,286.771l0.812-0.272 M723.115,286.5l1.081,0.813 M724.196,287.312l0.812,7.848 M725.009,295.16l1.08,1.083
		 M726.089,296.243l2.708,1.083 M728.797,297.325l0.812,2.977 M729.609,300.302l1.081,0.27 M730.69,300.572l0.812-0.812
		 M731.503,299.761l1.084-1.082 M732.587,298.679l2.704,0.269 M735.291,298.948l0.812-1.623 M736.103,297.325h1.082
		 M737.185,297.325l0.813,2.165 M737.998,299.49l1.083-3.248 M739.081,296.243l2.703-1.353 M741.784,294.89l0.814,1.353
		 M742.599,296.243l1.083,0.54 M743.682,296.783l0.811,0.271 M744.492,297.054l1.084-2.706 M745.576,294.348l2.706-1.624
		 M748.282,292.725l1.081,0.812 M749.363,293.537l0.813,0.271 M750.177,293.807l0.81-0.271 M750.986,293.537l1.084,2.435
		 M752.07,295.972l2.706-1.894 M754.776,294.078l1.082,2.705 M755.858,296.783l0.812-1.893 M756.671,294.89l0.81-1.353
		 M757.48,293.537l1.084-2.977 M758.564,290.56l2.707,0.271 M761.271,290.831l1.081,1.894 M762.353,292.725l0.812,1.895
		 M763.164,294.619l1.081,1.894 M764.245,296.513l0.814,1.895 M765.06,298.408h2.705 M767.765,298.408l1.081-0.542 M768.846,297.865
		l0.813,1.625 M769.659,299.49l1.084,0.271 M770.743,299.761l0.811-2.436 M771.554,297.325l2.706,0.812 M774.26,298.137l1.084,1.353
		 M775.344,299.49l0.811,0.54"/>
	<text transform="matrix(1 0 0 1 410.0059 315.1738)" fill="#80807E" font-family="'NordeaSansLight'" font-size="7.8928">2,0%</text>
	<text transform="matrix(1 0 0 1 410.0059 291.6533)" fill="#80807E" font-family="'NordeaSansLight'" font-size="7.8928">2,5%</text>
	<text transform="matrix(1 0 0 1 410.0059 267.8252)" fill="#80807E" font-family="'NordeaSansLight'" font-size="7.8928">3,0%</text>
	<text transform="matrix(1 0 0 1 410.0059 244.2969)" fill="#80807E" font-family="'NordeaSansLight'" font-size="7.8928">3,5%</text>
	<text transform="matrix(1 0 0 1 410.0059 220.7412)" fill="#80807E" font-family="'NordeaSansLight'" font-size="7.8928">4,0%</text>
	<text transform="matrix(1 0 0 1 410.0059 197.2041)" fill="#80807E" font-family="'NordeaSansLight'" font-size="7.8928">4,5%</text>
	<text transform="matrix(1 0 0 1 410.0059 173.3926)" fill="#80807E" font-family="'NordeaSansLight'" font-size="7.8928">5,0%</text>
	<text transform="matrix(1 0 0 1 410.0059 149.8467)" fill="#80807E" font-family="'NordeaSansLight'" font-size="7.8928">5,5%</text>
	<text transform="matrix(1 0 0 1 410.0059 126.3086)" fill="#80807E" font-family="'NordeaSansLight'" font-size="7.8928">6,0%</text>
	<text transform="matrix(1 0 0 1 423.29 327.9111)" fill="#80807E" font-family="'NordeaSansLight'" font-size="7.8928">Sep-08</text>
	<text transform="matrix(1 0 0 1 508.79 327.9111)" fill="#80807E" font-family="'NordeaSansLight'" font-size="7.8928">Dec-08</text>
	<text transform="matrix(1 0 0 1 594.8359 327.9111)" fill="#80807E" font-family="'NordeaSansLight'" font-size="7.8928">Ma</text>
	<text transform="matrix(1 0 0 1 605.1865 327.9111)" fill="#80807E" font-family="'NordeaSansLight'" font-size="7.8928">r-</text>
	<text transform="matrix(1 0 0 1 610.0234 327.9111)" fill="#80807E" font-family="'NordeaSansLight'" font-size="7.8928">09</text>
	<text transform="matrix(1 0 0 1 676.8301 327.9111)" fill="#80807E" font-family="'NordeaSansLight'" font-size="7.8928">Jun-09</text>
	<text transform="matrix(1 0 0 1 762.8945 327.9111)" fill="#80807E" font-family="'NordeaSansLight'" font-size="7.8928">Sep-09</text>
	<g>
		<defs>
			<rect id="SVGID_3_" x="410" y="119.567" width="377.608" height="232.151"/>
		</defs>
		<clipPath id="SVGID_4_">
			<use xlink:href="#SVGID_3_"  overflow="visible"/>
		</clipPath>
		
			<line clip-path="url(#SVGID_4_)" fill="none" stroke="#555658" stroke-width="1.92" stroke-linecap="round" stroke-miterlimit="10" x1="434.1" y1="344.772" x2="457.914" y2="344.772"/>
	</g>
	<text transform="matrix(1 0 0 1 461.1602 346.8418)" fill="#80807E" font-family="'NordeaSansLight'" font-size="7.8928">4% Ink. real 2011 - effektiv rente</text>
	<g>
		<defs>
			<rect id="SVGID_5_" x="410" y="119.567" width="377.608" height="232.151"/>
		</defs>
		<clipPath id="SVGID_6_">
			<use xlink:href="#SVGID_5_"  overflow="visible"/>
		</clipPath>
		
			<line clip-path="url(#SVGID_6_)" fill="none" stroke="#E2B412" stroke-width="1.92" stroke-linecap="round" stroke-miterlimit="10" x1="610.541" y1="344.772" x2="634.354" y2="344.772"/>
	</g>
	<text transform="matrix(1 0 0 1 637.6035 346.8418)" fill="#80807E" font-family="'NordeaSansLight'" font-size="7.8928">2% Ink. real 2011 - effektiv rent</text>
	<text transform="matrix(1 0 0 1 744.0957 346.8418)" fill="#80807E" font-family="'NordeaSansLight'" font-size="7.8928">e</text>
	<g>
		<defs>
			<rect id="SVGID_7_" x="410" y="119.567" width="377.608" height="232.151"/>
		</defs>
		<clipPath id="SVGID_8_">
			<use xlink:href="#SVGID_7_"  overflow="visible"/>
		</clipPath>
		<path clip-path="url(#SVGID_8_)" fill="none" stroke="#7C7D7C" stroke-linecap="square" stroke-miterlimit="10" d="
			M777.816,123.592v188.886 M437.078,123.592v188.886"/>
	</g>
</g>
<rect x="20.609" y="119.567" fill="none" width="364.103" height="235.291"/>
<text transform="matrix(1 0 0 1 20.6084 129.4512)"><tspan x="0" y="0" font-family="'AkzidenzGroteskNordea-Bold'" font-size="14">For din samlede opsparing i Nordea på kapital- </tspan><tspan x="0" y="16.8" font-family="'AkzidenzGroteskNordea-Bold'" font-size="14">eller ratepension kan du investere i unoterede aktier:</tspan><tspan x="0" y="50.4" font-family="'AkzidenzGroteskNordea-Light'" font-size="14">Minimum investering for 100.000 kr. i hvert enkelt selskab, </tspan><tspan x="0" y="67.2" font-family="'AkzidenzGroteskNordea-Light'" font-size="14">altså kun relevant hvis den samlede opsparing i Nordea på </tspan><tspan x="0" y="84" font-family="'AkzidenzGroteskNordea-Light'" font-size="14">kapital- eller ratepension er mindst 500.000 kr.</tspan><tspan x="0" y="117.6" font-family="'AkzidenzGroteskNordea-Light'" font-size="14">Investeringen må højest udgøre:</tspan><tspan x="0" y="151.2" font-family="'AkzidenzGroteskNordea-Light'" font-size="14" letter-spacing="32">	</tspan><tspan x="36" y="151.2" font-family="'AkzidenzGroteskNordea-Light'" font-size="14">20 pct. af saldoen under 2 mio. kr. </tspan><tspan x="0" y="168" font-family="'AkzidenzGroteskNordea-Light'" font-size="14" letter-spacing="32">	</tspan><tspan x="36" y="168" font-family="'AkzidenzGroteskNordea-Light'" font-size="14">50 pct. af saldoen mellem 2 mio. kr. og 4 mio. kr.</tspan><tspan x="0" y="184.8" font-family="'AkzidenzGroteskNordea-Light'" font-size="14" letter-spacing="32">	</tspan><tspan x="36" y="184.8" font-family="'AkzidenzGroteskNordea-Light'" font-size="14">75 pct. af saldoen over 4 mio. kr.</tspan></text>
</svg>
