<?xml version="1.0" encoding="utf-8"?>
<!-- Generator: Adobe Illustrator 17.0.0, SVG Export Plug-In . SVG Version: 6.00 Build 0)  -->
<!DOCTYPE svg PUBLIC "-//W3C//DTD SVG 1.1//EN" "http://www.w3.org/Graphics/SVG/1.1/DTD/svg11.dtd">
<svg version="1.1" id="Layer_1" xmlns="http://www.w3.org/2000/svg" xmlns:xlink="http://www.w3.org/1999/xlink" x="0px" y="0px"
	 width="154px" height="40px" viewBox="0 0 154 40" enable-background="new 0 0 154 40" xml:space="preserve">
<rect y="0" width="154" height="40"/>
<g>
	<g id="bag_2_">
		<g id="handles_2_">
			<path fill="#FFFFFF" d="M19.321,8.552c-1.155,0.405-2,0.753-2,2.962v1.06l0.692-0.139v-0.916
				c-0.017-1.498,0.372-1.811,1.383-2.248C19.39,8.989,19.365,8.748,19.321,8.552z"/>
			<path fill="#FFFFFF" d="M21.334,8.078c0.047,0.215,0.082,0.447,0.107,0.697c1.809-0.26,1.775,0.486,1.775,2.045v0.574l0.685-0.14
				V10.82C23.902,8.4,23.523,7.752,21.334,8.078z"/>
			<path fill="#FFFFFF" d="M14.203,13.199v-3.183C14.18,8.043,15.199,7.438,17.078,7c2.832-0.664,3.012,1.16,3.012,2.322v2.698
				l0.694-0.139v-2.5c-0.007-2.198-0.693-3.843-3.843-3.129c-1.697,0.385-3.432,0.817-3.432,3.698v3.387L14.203,13.199z"/>
		</g>
		<path fill="#FFFFFF" d="M27.367,11.4L8.315,15.209v13.858l19.052,3.811l3.809-1.386V12.786L27.367,11.4z M16.68,26.199
			l-4.269-0.596v-3.572h4.269V26.199z M16.68,21.713h-4.269v-3.377l4.269-0.596V21.713z M22.497,27.013l-5.501-0.781v-4.2h5.501
			V27.013z M22.497,21.713h-5.501v-4.006l5.501-0.78V21.713z"/>
	</g>
</g>
<g>
	<rect x="38.179" y="9.686" fill="none" width="115.78" height="23.25"/>
	<text transform="matrix(1 0 0 1 38.1795 17.0867)"><tspan x="0" y="0" fill="#FFFFFF" font-family="'SegoeWP-SemiLight'" font-size="10">Download from </tspan><tspan x="0" y="13.585" fill="#FFFFFF" font-family="'SegoeWP-SemiLight'" font-size="10">Windows Phone Store</tspan></text>
</g>
</svg>
